<svg width="26" height="37" viewBox="0 0 26 37" fill="none" xmlns="http://www.w3.org/2000/svg">
<path d="M13 17.575C11.7686 17.575 10.5877 17.0877 9.717 16.2204C8.8463 15.353 8.35714 14.1766 8.35714 12.95C8.35714 11.7234 8.8463 10.547 9.717 9.67963C10.5877 8.81228 11.7686 8.325 13 8.325C14.2314 8.325 15.4123 8.81228 16.283 9.67963C17.1537 10.547 17.6429 11.7234 17.6429 12.95C17.6429 13.5574 17.5228 14.1588 17.2894 14.7199C17.0561 15.281 16.7141 15.7909 16.283 16.2204C15.8519 16.6498 15.34 16.9905 14.7767 17.2229C14.2134 17.4554 13.6097 17.575 13 17.575V17.575ZM13 0C9.55219 0 6.24558 1.36437 3.80761 3.79297C1.36964 6.22156 0 9.51545 0 12.95C0 22.6625 13 37 13 37C13 37 26 22.6625 26 12.95C26 9.51545 24.6304 6.22156 22.1924 3.79297C19.7544 1.36437 16.4478 0 13 0V0Z" fill="#FF0000"/>
</svg>
